<svg width="24" height="24" viewBox="0 0 24 24" fill="none" xmlns="http://www.w3.org/2000/svg">
<path d="M12.2 2C6.57551 2 2 6.57551 2 12.2C2 17.8245 6.57551 22.4 12.2 22.4C17.8245 22.4 22.4 17.8245 22.4 12.2C22.4 6.57551 17.8245 2 12.2 2ZM12.2 21.4727C7.08717 21.4727 2.92727 17.3128 2.92727 12.2C2.92727 7.08717 7.08717 2.92727 12.2 2.92727C17.3128 2.92727 21.4727 7.08717 21.4727 12.2C21.4727 17.3128 17.3128 21.4727 12.2 21.4727ZM12.6636 12.0257V4.97514C12.6636 4.71916 12.4558 4.51154 12.2 4.51154C11.944 4.51154 11.7364 4.71933 11.7364 4.97514V12.2C11.7364 12.3122 11.7772 12.4207 11.8512 12.5053L15.908 17.1417C15.9997 17.2464 16.128 17.3 16.257 17.3C16.3652 17.3 16.4742 17.2621 16.5621 17.1852C16.7547 17.0163 16.7743 16.7238 16.6058 16.5309L12.6636 12.0257Z" fill="white"/>
</svg>
