<svg width="94" height="94" viewBox="0 0 94 94" fill="none" xmlns="http://www.w3.org/2000/svg">
<circle cx="47" cy="47" r="46" stroke="#FF6B00" stroke-width="2"/>
<path d="M34.5061 44.508C33.6993 43.9666 32.7499 43.6774 31.7783 43.6763C30.1104 43.8289 28.6304 44.8079 27.8377 46.2831C27.045 47.7583 27.045 49.533 27.8377 51.0082C28.6304 52.4834 30.1104 53.4625 31.7783 53.6151C32.75 53.614 33.6993 53.3248 34.5061 52.7834C35.5135 53.4518 36.7291 53.7314 37.9272 53.571C39.1251 53.4106 40.2241 52.8206 41.0201 51.9109C41.8162 51.0012 42.2546 49.8335 42.2546 48.6249C42.2546 47.4164 41.8161 46.2487 41.0201 45.339C40.2241 44.4293 39.125 43.8394 37.9272 43.6789C36.7291 43.5185 35.5134 43.7981 34.5061 44.4665V44.508ZM40.1282 48.6665H40.1286C40.126 49.4261 39.8253 50.1546 39.2906 50.6945C38.7559 51.2343 38.0304 51.5422 37.2708 51.5518C36.5107 51.5615 35.7778 51.2718 35.2297 50.7457C34.8295 50.3559 34.1912 50.3559 33.7909 50.7457C33.244 51.2722 32.5118 51.5618 31.7529 51.5522C30.9936 51.5425 30.2693 51.2343 29.7356 50.6941C29.2025 50.1539 28.9036 49.4254 28.9036 48.6665C28.9036 47.9076 29.2025 47.1791 29.7356 46.6388C30.2692 46.0986 30.9936 45.7904 31.7529 45.7808C32.5118 45.7711 33.2441 46.0607 33.7909 46.5872C34.1912 46.9771 34.8295 46.9771 35.2297 46.5872C35.7633 46.0581 36.4829 45.7596 37.234 45.7555C38.0048 45.7555 38.7433 46.0626 39.2865 46.6091C39.8301 47.1557 40.1331 47.896 40.1286 48.6665L40.1282 48.6665Z" fill="#FF6B00"/>
<path d="M66.6601 27.0008H26.3392C24.9232 27.0008 23.5653 27.5633 22.5639 28.5646C21.5625 29.566 21 30.9242 21 32.3404V54.5463C21 55.9624 21.5625 57.3207 22.5639 58.3221C23.5653 59.323 24.9231 59.8859 26.3392 59.8859H43.1729C43.4487 59.8859 43.7131 59.7764 43.908 59.5811C44.103 59.3862 44.2125 59.1218 44.2125 58.8463C44.2214 58.5649 44.116 58.2916 43.9199 58.0896C43.7242 57.8873 43.4543 57.7733 43.1729 57.7733H26.3392C25.4749 57.7733 24.6454 57.4298 24.0339 56.8183C23.4227 56.2068 23.0793 55.3777 23.0793 54.5129V41.3302H69.9207V54.5462C69.9288 55.5052 69.5115 56.419 68.7816 57.0413C68.561 57.234 68.4363 57.5136 68.4404 57.8065C68.4463 58.2149 68.6891 58.5829 69.0623 58.7489C69.4354 58.9152 69.8713 58.8491 70.1788 58.5799C71.3387 57.564 72.0026 56.0963 71.9999 54.5543V32.3645C72.0066 30.944 71.4471 29.5794 70.445 28.5728C69.4429 27.5658 68.081 27 66.6608 27L66.6601 27.0008ZM69.9205 39.2263H23.0791V35.4086H69.9205V39.2263ZM69.9205 33.3045H23.0791V32.3647C23.0791 31.5 23.4225 30.6709 24.0337 30.0593C24.6452 29.4478 25.4746 29.1044 26.339 29.1044H66.6599C67.5243 29.1044 68.3537 29.4478 68.9653 30.0593C69.5765 30.6709 69.9199 31.5 69.9199 32.3647L69.9205 33.3045Z" fill="#FF6B00"/>
<path d="M64.3316 54.3977V49.1911C64.3316 48.3089 63.9811 47.4626 63.3569 46.8389C62.7331 46.2148 61.8869 45.8643 61.0048 45.8643H51.5731C50.6909 45.8643 49.8446 46.2148 49.2205 46.8389C48.5968 47.4627 48.2463 48.3089 48.2463 49.1911V54.3977C47.6455 54.6435 47.132 55.0631 46.7704 55.6022C46.4091 56.1413 46.2164 56.7759 46.2168 57.4249V68.5868C46.2168 69.469 46.5673 70.3152 47.1915 70.9393C47.8152 71.5631 48.6614 71.9136 49.5436 71.9136H63.0675C63.9497 71.9136 64.796 71.5631 65.4197 70.9393C66.0438 70.3152 66.3943 69.469 66.3943 68.5868V57.4249C66.3843 56.774 66.1838 56.1398 65.8174 55.6018C65.4505 55.0638 64.934 54.645 64.3318 54.3977H64.3316ZM50.359 49.1914V49.1911C50.359 48.5205 50.9026 47.977 51.5731 47.977H61.0377C61.36 47.977 61.6686 48.1047 61.8965 48.3327C62.1241 48.5603 62.2522 48.8692 62.2522 49.1911V54.1316H50.3594L50.359 49.1914ZM64.2812 68.5867C64.2767 69.2554 63.7357 69.7964 63.0671 69.8008H49.5431C48.8726 69.8008 48.3291 69.2572 48.3291 68.5867V57.4248C48.3383 56.8096 48.8065 56.2986 49.4184 56.2355H63.1829C63.7985 56.2946 64.2711 56.8066 64.2808 57.4248L64.2812 68.5867Z" fill="#FF6B00"/>
<path d="M59.8065 60.9513C59.8051 60.492 59.7148 60.0371 59.5403 59.612C59.179 58.748 58.4899 58.0618 57.6237 57.7047C56.7578 57.3471 55.7858 57.3471 54.92 57.7047C54.0537 58.0619 53.3646 58.7481 53.0033 59.612C52.765 60.1905 52.6848 60.822 52.7709 61.4417C52.857 62.0614 53.1066 62.647 53.4938 63.1386C53.4938 63.1386 52.8533 67.6216 52.8782 67.7297H52.8786C52.909 67.9142 52.9896 68.0869 53.1114 68.2287C53.3208 68.4667 53.6264 68.5978 53.9431 68.5863H58.6838C58.9838 68.5855 59.2689 68.4552 59.4657 68.2287C59.5883 68.0861 59.6714 67.9142 59.7067 67.7297C59.7067 67.6216 59.0911 63.1386 59.0911 63.1386H59.0915C59.5652 62.5089 59.817 61.7395 59.8066 60.9513H59.8065ZM56.9205 62.9474L57.4362 66.5069H55.1324L55.6481 62.9474C55.6971 62.6058 55.5723 62.2627 55.3154 62.0325C55.0143 61.7533 54.8427 61.3619 54.8413 60.9513C54.8442 60.7634 54.881 60.5774 54.9493 60.4021C55.0978 60.0468 55.3808 59.7646 55.7368 59.6176C56.0929 59.4706 56.4924 59.4706 56.8485 59.6176C57.2045 59.7646 57.4875 60.0468 57.636 60.4021C57.711 60.5755 57.7503 60.7623 57.7522 60.9513C57.7518 61.3638 57.5766 61.7566 57.2699 62.0325C57.0215 62.2675 56.9038 62.6091 56.9539 62.9474H56.9205Z" fill="#FF6B00"/>
</svg>
