<svg width="59" height="72" viewBox="0 0 59 72" fill="none" xmlns="http://www.w3.org/2000/svg">
<path d="M53.9658 53.2585H52.4626L49.7267 23.1948L49.7271 23.1944C49.6758 22.8332 49.4953 22.5029 49.2186 22.2651C48.942 22.0273 48.5886 21.8982 48.2236 21.9019H39.7157C39.3639 21.9159 39.0283 22.0533 38.7675 22.2892C38.5063 22.5255 38.3368 22.846 38.2877 23.1944L37.6264 30.4548H8.34445C7.97415 30.4767 7.62536 30.6348 7.36449 30.8983C7.10365 31.1618 6.94926 31.5125 6.93152 31.8831V53.2585H5.428C4.91803 53.2585 4.44659 53.5306 4.19138 53.9723C3.93621 54.4143 3.93621 54.9586 4.19138 55.4002C4.44655 55.8422 4.91802 56.1144 5.428 56.1144H53.9661C54.37 55.9819 54.6984 55.6845 54.8709 55.296C55.043 54.908 55.043 54.4648 54.8709 54.0764C54.6984 53.6884 54.37 53.3909 53.9661 53.2584L53.9658 53.2585ZM9.7723 33.3114H37.3709L37.1002 36.1522H14.056C13.6525 36.2851 13.3241 36.5821 13.1516 36.9706C12.979 37.3586 12.979 37.8018 13.1516 38.1902C13.3241 38.5782 13.6525 38.8757 14.056 39.0082H36.8441L36.5886 41.8642H14.0411V41.8645C13.6387 41.823 13.2382 41.954 12.9381 42.2247C12.638 42.4953 12.4666 42.8807 12.4666 43.285C12.4666 43.6893 12.638 44.0743 12.9381 44.3454C13.2382 44.616 13.6387 44.747 14.0411 44.7055H36.3335L36.0779 47.5615H14.0561C13.6526 47.6944 13.3242 47.9914 13.1517 48.3799C12.9791 48.7679 12.9791 49.2111 13.1517 49.5995C13.3242 49.9879 13.6526 50.285 14.0561 50.4175H35.7474L35.4919 53.2583L9.77188 53.2587L9.7723 33.3114ZM38.4377 53.2585L38.7533 50.4173L39.2644 44.7053L39.5199 41.8645L39.7906 38.9934L40.031 36.1974L40.3315 32.8602L40.4968 31.1015L41.0679 24.743H47.0808L49.6514 53.303L38.4377 53.2585Z" fill="#FF6B00"/>
<path d="M38.7536 19.0453C39.1145 19.043 39.461 18.9041 39.7237 18.6565C39.9861 18.4089 40.1454 18.071 40.1688 17.7109C40.1925 17.3508 40.0789 16.9952 39.8509 16.7155C38.5947 15.1878 37.9907 13.2265 38.1711 11.2569C38.3512 9.28679 39.3006 7.46776 40.8131 6.19306C41.9715 5.22035 43.4698 4.74926 44.9767 4.88474C46.4836 5.01987 47.8737 5.75066 48.8401 6.91482C49.558 7.78716 49.9038 8.90673 49.8026 10.032C49.7011 11.1573 49.1609 12.1976 48.2988 12.9277C47.6541 13.4546 46.8285 13.7083 45.9992 13.6339C45.1778 13.5569 44.421 13.1568 43.8948 12.5218C43.5464 12.2433 43.0882 12.1432 42.6556 12.252C42.223 12.3603 41.8659 12.6645 41.6904 13.0745C41.5145 13.484 41.5405 13.9525 41.7602 14.3406C42.7806 15.5545 44.2395 16.3166 45.8188 16.4601C47.3982 16.6036 48.9704 16.1174 50.1931 15.1073C51.643 13.8982 52.5538 12.1637 52.7255 10.2839C52.8977 8.40407 52.3164 6.53295 51.1099 5.08113C49.663 3.33718 47.5816 2.24097 45.3251 2.03524C43.0686 1.82951 40.823 2.53048 39.0844 3.98376C36.9637 5.72394 35.624 8.23757 35.3617 10.9685C35.0994 13.6992 35.9363 16.422 37.6866 18.5343C37.9452 18.8597 38.3385 19.048 38.7538 19.0454L38.7536 19.0453Z" fill="#FF6B00"/>
</svg>
