<svg width="94" height="94" viewBox="0 0 94 94" fill="none" xmlns="http://www.w3.org/2000/svg">
<circle cx="47" cy="47" r="46" stroke="#FF6B00" stroke-width="2"/>
<path d="M25.8905 31C25.2845 31.0025 24.7939 31.4987 24.7914 32.112C24.7939 32.7248 25.2845 33.2211 25.8905 33.2236H56.3142V58.6482H42.4341C42.0493 55.9892 39.7955 53.9202 37.0821 53.9202C34.3691 53.9202 32.1153 55.9888 31.7305 58.6477L26.9979 58.6482V53.8115C26.9988 53.514 26.8826 53.2281 26.6747 53.0178C26.4668 52.8076 26.184 52.69 25.8899 52.691C25.5973 52.692 25.317 52.811 25.1111 53.0208C24.9047 53.231 24.7894 53.5155 24.7909 53.8115V59.7687C24.7933 60.3815 25.284 60.8777 25.8899 60.8802H31.8576C32.4754 63.2372 34.5828 65 37.082 65C39.5812 65 41.6886 63.2379 42.3064 60.8802H62.4367C63.0545 63.2372 65.1619 65 67.6611 65C70.1602 65 72.2633 63.2379 72.8791 60.8802H77.9009C78.5069 60.8777 78.9975 60.3815 79 59.7687V49.4037C79 49.2607 78.9729 49.1182 78.9202 48.9852L74.7884 38.6292V38.6297C74.6214 38.2092 74.2195 37.9327 73.7712 37.9297H58.5227V32.1125C58.5203 31.4987 58.0281 31.002 57.4212 31.0005L25.8905 31ZM21.0844 38.0602C20.7918 38.0612 20.5114 38.1803 20.305 38.39C20.0991 38.6003 19.9838 38.8848 19.9853 39.1807C19.9873 39.7935 20.4784 40.2897 21.0844 40.2922H37.7339C38.0266 40.2932 38.3074 40.1771 38.5152 39.9684C38.7231 39.7601 38.8404 39.4766 38.8414 39.1807C38.8428 38.8833 38.7266 38.5973 38.5182 38.387C38.3103 38.1768 38.028 38.0592 37.7339 38.0602L21.0844 38.0602ZM58.5238 40.1618H73.0219L76.2634 48.2922L58.5229 48.2917L58.5238 40.1618ZM16.1079 45.1768C15.8148 45.1758 15.5335 45.2924 15.3256 45.5016C15.1177 45.7104 15.0005 45.9944 15 46.2908C15.0015 46.5868 15.1187 46.8702 15.3261 47.0785C15.534 47.2873 15.8153 47.4038 16.1079 47.4024H37.7339C38.0266 47.4038 38.3074 47.2873 38.5153 47.0785C38.7231 46.8702 38.8404 46.5868 38.8414 46.2908C38.8409 45.9944 38.7241 45.7104 38.5162 45.5016C38.3084 45.2924 38.0271 45.1758 37.7339 45.1768H16.1079ZM58.5238 50.5237H76.794V58.6476H73.0051C72.6218 55.9886 70.3754 53.9201 67.662 53.9201C64.9491 53.9201 62.6973 55.9887 62.3125 58.6476H58.5237L58.5238 50.5237ZM37.0012 56.1516C37.0288 56.1511 37.0554 56.1516 37.083 56.1516C38.8535 56.1516 40.2836 57.6053 40.2836 59.4538C40.2836 61.3022 38.8535 62.7671 37.083 62.7671C35.3125 62.7671 33.8824 61.3023 33.8824 59.4538C33.8824 57.6343 35.2691 56.196 37.0012 56.1516H37.0012ZM67.5801 56.1516C67.6077 56.1511 67.6343 56.1516 67.6618 56.1516C69.4324 56.1516 70.8645 57.6053 70.8645 59.4538C70.8645 61.3022 69.4325 62.7671 67.6618 62.7671C65.8913 62.7671 64.4612 61.3023 64.4612 59.4538C64.4612 57.6343 65.8479 56.196 67.58 56.1516H67.5801Z" fill="#FF6B00"/>
</svg>
