<svg width="116" height="52" viewBox="0 0 116 52" fill="none" xmlns="http://www.w3.org/2000/svg">
<path d="M46.424 25.316L48.986 22.152V21.2H42.518V22.418H47.236L44.772 25.442V26.422H45.556C47.236 26.422 47.978 27.094 47.978 28.13C47.978 29.194 47.138 29.866 45.668 29.866C44.464 29.866 43.372 29.432 42.714 28.816L42.07 29.922C42.896 30.664 44.268 31.112 45.668 31.112C48.16 31.112 49.378 29.768 49.378 28.116C49.378 26.604 48.384 25.498 46.424 25.316ZM54.9117 25.05C53.6937 25.05 52.6577 25.498 52.0977 26.338C52.0837 26.212 52.0837 26.1 52.0837 25.988C52.0837 23.538 53.3577 22.292 55.3457 22.292C56.0457 22.292 56.7177 22.418 57.2217 22.754L57.7537 21.662C57.1237 21.27 56.2417 21.088 55.3177 21.088C52.5737 21.088 50.6837 22.88 50.6837 26.226C50.6837 29.348 52.1677 31.112 54.7997 31.112C56.7457 31.112 58.2717 29.908 58.2717 28.018C58.2717 26.212 56.8577 25.05 54.9117 25.05ZM54.7437 29.978C53.2317 29.978 52.4197 29.096 52.4197 28.088C52.4197 27.01 53.3437 26.184 54.6737 26.184C56.0457 26.184 56.9137 26.926 56.9137 28.074C56.9137 29.236 56.0177 29.978 54.7437 29.978ZM63.3283 31.112C65.6103 31.112 67.3183 29.292 67.3183 26.1C67.3183 22.908 65.6103 21.088 63.3283 21.088C61.0323 21.088 59.3243 22.908 59.3243 26.1C59.3243 29.292 61.0323 31.112 63.3283 31.112ZM63.3283 29.866C61.7883 29.866 60.7243 28.606 60.7243 26.1C60.7243 23.594 61.7883 22.334 63.3283 22.334C64.8543 22.334 65.9183 23.594 65.9183 26.1C65.9183 28.606 64.8543 29.866 63.3283 29.866ZM70.9573 25.666C72.2453 25.666 73.2673 24.658 73.2673 23.384C73.2673 22.124 72.2453 21.116 70.9573 21.116C69.6693 21.116 68.6613 22.124 68.6613 23.384C68.6613 24.658 69.6693 25.666 70.9573 25.666ZM70.9573 24.91C70.1033 24.91 69.4453 24.266 69.4453 23.384C69.4453 22.502 70.1033 21.858 70.9573 21.858C71.8113 21.858 72.4693 22.516 72.4693 23.384C72.4693 24.252 71.8113 24.91 70.9573 24.91Z" fill="white"/>
<circle cx="58" cy="26" r="25.6579" stroke="#BEBEBE" stroke-width="0.684211"/>
<path d="M9.99995 25.7377C9.99995 25.8328 10.0407 25.9414 10.1086 26.023L13.2332 29.3514C13.3827 29.5144 13.6408 29.528 13.8038 29.365C13.9668 29.2155 13.9805 28.9574 13.8174 28.7944L10.9645 25.7377L13.831 22.681C13.9804 22.518 13.9804 22.2599 13.8174 22.1104C13.6544 21.961 13.3963 21.961 13.2468 22.124L10.1222 25.4524C10.0407 25.534 9.99998 25.6426 9.99998 25.7377L9.99995 25.7377Z" fill="#BEBEBE"/>
<path d="M106 25.7377C106 25.8328 105.959 25.9414 105.891 26.023L102.767 29.3514C102.617 29.5144 102.359 29.528 102.196 29.365C102.033 29.2155 102.02 28.9574 102.183 28.7944L105.036 25.7377L102.169 22.681C102.02 22.518 102.02 22.2599 102.183 22.1104C102.346 21.961 102.604 21.961 102.753 22.124L105.878 25.4524C105.959 25.534 106 25.6426 106 25.7377L106 25.7377Z" fill="#BEBEBE"/>
</svg>
