<svg width="94" height="94" viewBox="0 0 94 94" fill="none" xmlns="http://www.w3.org/2000/svg">
<circle cx="47" cy="47" r="46" stroke="#FF6B00" stroke-width="2"/>
<path d="M56.4962 36.8341L50.3438 35.9331L47.5934 30.3557C47.4334 30.025 47.0984 29.8154 46.7309 29.8154C46.3634 29.8154 46.0284 30.025 45.8684 30.3557L43.1181 35.9331L36.9657 36.8341C36.6063 36.8863 36.3073 37.1374 36.1935 37.4823C36.0797 37.8275 36.1712 38.2074 36.4292 38.4632L40.8853 42.8043L39.8312 48.9374C39.7717 49.2959 39.9202 49.6574 40.2145 49.8705C40.5089 50.0839 40.8986 50.1122 41.2207 49.9436L46.7309 47.0687L52.2411 49.9436C52.3754 50.0193 52.5273 50.0591 52.6817 50.0587C52.8849 50.0591 53.083 49.9954 53.2473 49.8764C53.5511 49.6591 53.7004 49.2848 53.6306 48.9181L52.5765 42.785L57.0326 38.444C57.2906 38.1881 57.3822 37.8082 57.2684 37.4634C57.1546 37.1182 56.8555 36.8671 56.4962 36.8149V36.8341ZM50.8807 41.7886L50.8803 41.7882C50.6553 42.0068 50.5513 42.3221 50.6027 42.6318L51.4078 47.3467L47.1819 45.1234H47.1814C46.8999 44.9732 46.562 44.9732 46.2805 45.1234L42.0545 47.3467L42.8977 42.6318C42.9486 42.3221 42.8451 42.0068 42.6196 41.7882L39.1603 38.444L43.856 37.7633C44.1679 37.7167 44.4366 37.5195 44.5747 37.2362L46.731 32.9432L48.8487 37.2362C48.9873 37.5195 49.2559 37.7167 49.5674 37.7633L54.3016 38.4435L50.8807 41.7886ZM46.7309 23.4659C42.1203 23.4659 37.6989 25.2974 34.4395 28.5572C31.1791 31.8172 29.3477 36.2386 29.3477 40.8487C29.3477 45.4593 31.1792 49.8807 34.4395 53.1401C37.6994 56.4005 42.1209 58.2319 46.7309 58.2319C51.3409 58.2319 55.7629 56.4004 59.0224 53.1401C62.2828 49.8801 64.1142 45.4587 64.1142 40.8487C64.109 36.2399 62.2759 31.8214 59.0168 28.5627C55.7577 25.3036 51.3392 23.4705 46.7308 23.4658L46.7309 23.4659ZM46.7309 56.3164C42.6286 56.3164 38.6949 54.6869 35.7943 51.7863C32.8934 48.8858 31.2638 44.9516 31.2638 40.8493C31.2638 36.7475 32.8934 32.8133 35.7943 29.9128C38.6949 27.0122 42.6286 25.3827 46.7309 25.3827C50.8332 25.3827 54.767 27.0122 57.6675 29.9128C60.5685 32.8133 62.198 36.7475 62.198 40.8493C62.1929 44.9499 60.5617 48.8811 57.6619 51.7808C54.7626 54.6801 50.8315 56.3113 46.7308 56.3164H46.7309ZM69.2603 37.5622L66.3854 34.2946L66.7302 29.9822H66.7306C66.8119 28.8417 66.4829 27.7097 65.8027 26.7902C65.1229 25.8713 64.1364 25.2257 63.0219 24.9699L58.8054 24.0116L56.5726 20.3128C55.9723 19.3203 55.0328 18.5789 53.9279 18.2263C52.8233 17.8742 51.628 17.9345 50.564 18.3962L46.6157 20.1117L42.6195 18.4534C41.5572 18.0154 40.3726 17.9739 39.2821 18.3362C38.1912 18.6986 37.2671 19.4408 36.678 20.4278L34.4551 24.1459L30.248 25.1521C29.1335 25.423 28.1534 26.0844 27.4851 27.0162C26.8169 27.9484 26.505 29.089 26.6064 30.2311L26.9991 34.5435L24.1628 37.8403C23.4128 38.71 23 39.8202 23 40.9688C23 42.1175 23.4128 43.2277 24.1628 44.0978L27.0377 47.3655L26.6929 51.6778C26.6035 52.83 26.9333 53.9755 27.6216 54.9035C28.3104 55.8319 29.3111 56.4796 30.4396 56.7281L34.6655 57.6864L36.9175 61.3852C37.7928 62.7906 39.3256 63.651 40.9809 63.6663C41.6201 63.6659 42.2528 63.5354 42.8402 63.283L46.8265 61.5867L50.8227 63.2446C51.8786 63.6878 53.0585 63.7383 54.1485 63.3866C55.2382 63.0349 56.1661 62.3047 56.7642 61.3279L58.585 58.2901V73.5079L47.2485 65.8415C46.9242 65.6224 46.4994 65.6224 46.1751 65.8415L34.8387 73.5079V61.6151C34.8387 61.0859 34.4096 60.6568 33.8804 60.6568C33.3508 60.6568 32.9221 61.0859 32.9221 61.6151V75.2996C32.9191 75.6564 33.1151 75.985 33.4299 76.1527C33.5707 76.2199 33.7243 76.2562 33.8804 76.258C34.0712 76.2584 34.2582 76.2019 34.4169 76.0949L46.7313 67.8347L59.0261 76.0954V76.095C59.32 76.2939 59.6999 76.314 60.013 76.1472C60.3262 75.9807 60.5217 75.6543 60.5213 75.2997V57.1971L63.2139 56.5455V56.5451C64.3284 56.2747 65.3085 55.6133 65.9768 54.6811C66.645 53.7493 66.9569 52.6083 66.8555 51.4661L66.4816 47.1443L69.2992 43.8475C70.0517 42.9714 70.462 41.8526 70.4552 40.6971C70.4479 39.542 70.024 38.4284 69.2608 37.5612L69.2603 37.5622ZM67.8134 42.6125L64.7661 46.1869C64.5967 46.3824 64.5137 46.6383 64.536 46.8962L64.9385 51.63C65.0014 52.3184 64.8141 53.0062 64.4111 53.5675C64.0081 54.1288 63.4164 54.5263 62.7438 54.6872L58.1731 55.7699C57.9203 55.829 57.7025 55.9881 57.569 56.2106L55.1446 60.274C54.8006 60.8794 54.2488 61.3393 53.5912 61.5681C52.934 61.7974 52.2157 61.7799 51.5702 61.5198L47.2006 59.7084C46.9644 59.61 46.6987 59.61 46.4626 59.7084L42.1117 61.5198C41.4768 61.7918 40.7653 61.8265 40.1073 61.6169C39.4494 61.4077 38.8885 60.9683 38.5278 60.3792L36.0551 56.3449C35.9199 56.1259 35.7026 55.9706 35.4515 55.9137L30.8422 54.8595C30.1701 54.7055 29.5755 54.3145 29.1673 53.7587C28.7592 53.203 28.5645 52.519 28.6189 51.8314L28.9829 47.1452C29.0026 46.8906 28.9196 46.6391 28.7532 46.4457L25.6481 42.8423C25.1976 42.3203 24.9499 41.6537 24.9499 40.9642C24.9499 40.2747 25.1976 39.608 25.6481 39.0862L28.724 35.4832V35.4827C28.8935 35.2872 28.9765 35.0314 28.9542 34.7738L28.523 30.0683C28.4614 29.3855 28.6458 28.7031 29.0428 28.1445C29.4398 27.5858 30.0237 27.1875 30.6885 27.021L35.2884 25.919C35.5412 25.86 35.759 25.7008 35.8924 25.4784L38.3169 21.415C38.6711 20.8088 39.2354 20.3531 39.9027 20.1341C40.5701 19.9151 41.2944 19.948 41.9392 20.2265L46.2609 22.0379C46.4971 22.1363 46.7628 22.1363 46.9989 22.0379L51.3498 20.1786C51.9847 19.9065 52.6961 19.8723 53.3541 20.0815C54.0121 20.2911 54.573 20.7305 54.9336 21.3191L57.406 25.3534H57.4064C57.5416 25.5725 57.7589 25.7282 58.01 25.7847L62.6193 26.8388C63.2969 26.9937 63.8954 27.3885 64.304 27.9506C64.7126 28.5128 64.9043 29.2037 64.8427 29.8959L64.4786 34.6203C64.4589 34.8749 64.5419 35.1268 64.7083 35.3198L67.8134 38.8561C68.2639 39.378 68.5116 40.0449 68.5116 40.7341C68.5116 41.4238 68.2639 42.0903 67.8134 42.6126L67.8134 42.6125Z" fill="#FF6B00"/>
</svg>
