<svg width="94" height="94" viewBox="0 0 94 94" fill="none" xmlns="http://www.w3.org/2000/svg">
<circle cx="47" cy="47" r="46" stroke="#FF6B00" stroke-width="2"/>
<path d="M68.4504 37.9918H52.4586V32.9418C52.4579 32.2722 52.1915 31.6304 51.7184 31.157C51.245 30.6839 50.6032 30.4175 49.9336 30.4168H47.4086V24.525C47.4078 23.8555 47.1414 23.2137 46.6684 22.7402C46.1949 22.2672 45.5531 22.0008 44.8835 22H30.5751C29.9055 22.0008 29.2637 22.2672 28.7903 22.7402C28.3172 23.2137 28.0508 23.8555 28.0501 24.525V30.4168H25.525C24.8555 30.4175 24.2137 30.6839 23.7402 31.157C23.2672 31.6304 23.0008 32.2722 23 32.9418V69.9754C23.0008 70.645 23.2672 71.2868 23.7402 71.7602C24.2137 72.2333 24.8555 72.4997 25.525 72.5004H49.9335C50.6031 72.4997 51.2449 72.2333 51.7184 71.7602C52.1914 71.2868 52.4578 70.645 52.4586 69.9754V64.0837H68.4504C69.1199 64.0829 69.7617 63.8165 70.2352 63.3435C70.7083 62.87 70.9747 62.2282 70.9754 61.5586V40.5168C70.9747 39.8472 70.7083 39.2054 70.2352 38.732C69.7617 38.2589 69.12 37.9925 68.4504 37.9918L68.4504 37.9918ZM68.4504 39.6752C68.9152 39.6756 69.2917 40.0521 69.2921 40.5168V44.7252H52.4586V39.6752H68.4504ZM69.2921 50.6169H52.4586V46.4086H69.2921V50.6169ZM29.7335 24.5251C29.7339 24.0603 30.1104 23.6838 30.5752 23.6834H44.8836C45.3484 23.6838 45.7249 24.0603 45.7253 24.5251V33.7835H29.7335V24.5251ZM50.7753 69.9754C50.7749 70.4402 50.3984 70.8167 49.9336 70.8171H25.5251C25.0603 70.8167 24.6838 70.4402 24.6835 69.9754V32.9418C24.6838 32.477 25.0603 32.1005 25.5251 32.1001H28.0501V33.7835H27.2085C26.7501 33.7925 26.3833 34.1667 26.3833 34.6251C26.3833 35.0836 26.7501 35.4578 27.2085 35.4668H48.2503C48.7087 35.4578 49.0754 35.0836 49.0754 34.6251C49.0754 34.1667 48.7087 33.7925 48.2503 33.7835H47.4086V32.1001H49.9336C50.3984 32.1005 50.7749 32.477 50.7753 32.9418V66.6087H38.9919C38.5335 66.6177 38.1668 66.992 38.1668 67.4504C38.1668 67.9088 38.5335 68.283 38.9919 68.292H50.7753V69.9754ZM68.4504 62.4003H52.4586V52.3003H69.2921V61.5587C69.2917 62.0235 68.9152 62.4 68.4504 62.4003Z" fill="#FF6B00"/>
<path d="M66.7671 59.0337H58.3503C57.8919 59.0427 57.5248 59.417 57.5248 59.8754C57.5248 60.3338 57.8919 60.708 58.3503 60.717H66.7671C67.2255 60.708 67.5926 60.3338 67.5926 59.8754C67.5926 59.417 67.2255 59.0427 66.7671 59.0337Z" fill="#FF6B00"/>
<path d="M66.7671 55.667H61.717C61.2523 55.667 60.8754 56.0439 60.8754 56.5087C60.8754 56.9735 61.2523 57.3503 61.717 57.3503H66.7671C67.2255 57.3413 67.5926 56.9671 67.5926 56.5087C67.5926 56.0503 67.2255 55.676 66.7671 55.667Z" fill="#FF6B00"/>
<path d="M46.5669 48.9334C47.2365 48.9326 47.8783 48.6662 48.3518 48.1932C48.8248 47.7197 49.0912 47.0779 49.092 46.4083V39.6749C49.0912 39.0054 48.8248 38.3636 48.3518 37.8901C47.8783 37.4171 47.2365 37.1507 46.5669 37.1499H28.8918C28.2223 37.1507 27.5805 37.4171 27.107 37.8901C26.6339 38.3636 26.3675 39.0054 26.3668 39.6749V46.4083C26.3675 47.0779 26.6339 47.7197 27.107 48.1932C27.5804 48.6662 28.2222 48.9326 28.8918 48.9334H46.5669ZM28.0502 46.4084V39.675C28.0505 39.2102 28.427 38.8337 28.8918 38.8333H46.5669C47.0317 38.8337 47.4082 39.2102 47.4086 39.675V46.4084C47.4082 46.8731 47.0317 47.2497 46.5669 47.25H28.8918C28.427 47.2497 28.0505 46.8731 28.0502 46.4084Z" fill="#FF6B00"/>
<path d="M32.2595 51.4585H28.0511C27.8279 51.4585 27.6137 51.5472 27.4559 51.705C27.2981 51.8628 27.2094 52.077 27.2094 52.3002V56.5085C27.2094 56.7317 27.2981 56.9459 27.4559 57.1037C27.6137 57.2615 27.8279 57.3502 28.0511 57.3502H32.2595C32.4827 57.3502 32.6968 57.2615 32.8547 57.1037C33.0125 56.9459 33.1011 56.7317 33.1011 56.5085V52.3002C33.1011 52.077 33.0125 51.8628 32.8547 51.705C32.6968 51.5472 32.4827 51.4585 32.2595 51.4585ZM31.4178 55.6669H28.8928V53.1418H31.4178V55.6669Z" fill="#FF6B00"/>
<path d="M39.8336 51.4585H35.6252C35.402 51.4585 35.1878 51.5472 35.03 51.705C34.8722 51.8628 34.7835 52.077 34.7835 52.3002V56.5085C34.7835 56.7317 34.8722 56.9459 35.03 57.1037C35.1878 57.2615 35.402 57.3502 35.6252 57.3502H39.8336C40.0567 57.3502 40.2709 57.2615 40.4287 57.1037C40.5865 56.9459 40.6752 56.7317 40.6752 56.5085V52.3002C40.6752 52.077 40.5865 51.8628 40.4287 51.705C40.2709 51.5472 40.0567 51.4585 39.8336 51.4585ZM38.9919 55.6669H36.4669V53.1418H38.9919V55.6669Z" fill="#FF6B00"/>
<path d="M47.4096 51.4585H43.2012C42.978 51.4585 42.7639 51.5472 42.606 51.705C42.4482 51.8628 42.3596 52.077 42.3596 52.3002V56.5085C42.3596 56.7317 42.4482 56.9459 42.606 57.1037C42.7639 57.2615 42.978 57.3502 43.2012 57.3502H47.4096C47.6328 57.3502 47.847 57.2615 48.0048 57.1037C48.1626 56.9459 48.2513 56.7317 48.2513 56.5085V52.3002C48.2513 52.077 48.1626 51.8628 48.0048 51.705C47.847 51.5472 47.6328 51.4585 47.4096 51.4585ZM46.5679 55.6669H44.0429V53.1418H46.5679V55.6669Z" fill="#FF6B00"/>
<path d="M32.2595 59.0337H28.0511C27.8279 59.0337 27.6137 59.1224 27.4559 59.2802C27.2981 59.438 27.2094 59.6522 27.2094 59.8754V64.0837C27.2094 64.3069 27.2981 64.5211 27.4559 64.6789C27.6137 64.8367 27.8279 64.9254 28.0511 64.9254H32.2595C32.4827 64.9254 32.6968 64.8367 32.8547 64.6789C33.0125 64.5211 33.1011 64.3069 33.1011 64.0837V59.8754C33.1011 59.6522 33.0125 59.438 32.8547 59.2802C32.6968 59.1224 32.4827 59.0337 32.2595 59.0337ZM31.4178 63.2421H28.8928V60.717H31.4178V63.2421Z" fill="#FF6B00"/>
<path d="M40.6762 64.0837V59.8754C40.6762 59.6522 40.5875 59.438 40.4297 59.2802C40.2719 59.1224 40.0577 59.0337 39.8345 59.0337H35.6262C35.403 59.0337 35.1888 59.1224 35.031 59.2802C34.8732 59.438 34.7845 59.6522 34.7845 59.8754V64.0837C34.7845 64.3069 34.8732 64.5211 35.031 64.6789C35.1888 64.8367 35.403 64.9254 35.6262 64.9254H39.8345C40.0577 64.9254 40.2719 64.8367 40.4297 64.6789C40.5875 64.5211 40.6762 64.3069 40.6762 64.0837ZM38.9929 63.2421H36.4678V60.717H38.9929V63.2421Z" fill="#FF6B00"/>
<path d="M47.4096 59.0337H43.2012C42.978 59.0337 42.7639 59.1224 42.606 59.2802C42.4482 59.438 42.3596 59.6522 42.3596 59.8754V64.0837C42.3596 64.3069 42.4482 64.5211 42.606 64.6789C42.7639 64.8367 42.978 64.9254 43.2012 64.9254H47.4096C47.6328 64.9254 47.847 64.8367 48.0048 64.6789C48.1626 64.5211 48.2513 64.3069 48.2513 64.0837V59.8754C48.2513 59.6522 48.1626 59.438 48.0048 59.2802C47.847 59.1224 47.6328 59.0337 47.4096 59.0337ZM46.5679 63.2421H44.0429V60.717H46.5679V63.2421Z" fill="#FF6B00"/>
<path d="M34.7835 27.8918H40.6752C41.1336 27.8828 41.5007 27.5086 41.5007 27.0502C41.5007 26.5918 41.1336 26.2175 40.6752 26.2085H34.7835C34.3251 26.2175 33.958 26.5918 33.958 27.0502C33.958 27.5086 34.3251 27.8828 34.7835 27.8918Z" fill="#FF6B00"/>
<path d="M33.1002 31.2585H42.3586C42.817 31.2495 43.1841 30.8753 43.1841 30.4169C43.1841 29.9585 42.817 29.5842 42.3586 29.5752H33.1002C32.6418 29.5842 32.2747 29.9585 32.2747 30.4169C32.2747 30.8753 32.6418 31.2495 33.1002 31.2585Z" fill="#FF6B00"/>
</svg>
