<svg width="102" height="102" viewBox="0 0 102 102" fill="none" xmlns="http://www.w3.org/2000/svg">
<g filter="url(#filter0_d_141_32)">
<circle cx="51" cy="47" r="46" stroke="#FF6B00" stroke-width="2" shape-rendering="crispEdges"/>
</g>
<path d="M68.8226 22C73.2854 22 76.9982 25.5043 76.9982 30.16C76.9982 31.2965 76.7445 32.7726 76.3607 33.8095C74.1726 38.5127 71.9627 43.2251 69.7628 47.9298C69.5999 48.2791 69.2242 48.5196 68.8387 48.5196H55.069C52.5084 48.5196 50.4793 50.549 50.4793 53.1093C50.4793 55.6699 52.5088 57.699 55.069 57.699H61.1888C65.4093 57.699 68.8386 61.1283 68.8386 65.3488C68.8386 69.5693 65.4093 72.9986 61.1888 72.9986H35.1794C34.7938 72.9986 34.4181 72.7585 34.2552 72.4088C31.7725 67.1115 29.1778 61.852 26.7172 56.5518C26.2981 55.437 26 53.8574 26 52.5996C26 47.42 30.1582 43.4198 35.1962 43.4198C40.2337 43.4198 44.3595 47.423 44.3595 52.5996C44.3595 53.8585 44.0582 55.4399 43.6424 56.5518C41.3699 61.3518 39.0747 66.1569 36.7894 70.959H61.1896C64.3151 70.959 66.7996 68.4749 66.7996 65.3489C66.7996 62.2234 64.3155 59.7389 61.1896 59.7389H55.0698C51.4146 59.7389 48.4399 56.7642 48.4399 53.1089C48.4399 49.4537 51.4146 46.479 55.0698 46.479H67.2294C65.2636 42.2536 63.2476 38.0427 61.3163 33.8095C60.9356 32.775 60.6788 31.2972 60.6788 30.16C60.6788 25.5076 64.3596 22 68.8227 22L68.8226 22ZM68.8226 24.0398C65.3986 24.0398 62.7189 26.5574 62.7189 30.1595C62.7189 30.9137 62.9967 32.4526 63.229 33.0919C65.0874 37.0886 66.9671 41.0832 68.8391 45.0766C70.6665 41.0635 72.5583 37.1827 74.4491 33.0919C74.6818 32.4547 74.9593 30.9155 74.9593 30.1595C74.9593 26.5602 72.2475 24.0398 68.8235 24.0398H68.8226ZM68.8383 26.5897C70.7977 26.5897 72.4081 28.2002 72.4081 30.1595C72.4081 32.1189 70.7976 33.7293 68.8383 33.7293C66.8788 33.7293 65.2685 32.1189 65.2685 30.1595C65.2685 28.2002 66.8789 26.5897 68.8383 26.5897ZM68.8383 28.6295C67.9813 28.6295 67.3082 29.3025 67.3082 30.1595C67.3082 31.0165 67.9813 31.6896 68.8383 31.6896C69.6953 31.6896 70.3683 31.0165 70.3683 30.1595C70.3683 29.3025 69.6953 28.6295 68.8383 28.6295ZM35.1946 45.459C31.2182 45.459 28.0389 48.4921 28.0389 52.5987C28.0389 53.4699 28.3438 55.0522 28.6288 55.8182C30.8006 60.4097 32.9937 64.9998 35.179 69.5878C37.3191 64.9789 39.6072 60.3325 41.7292 55.8182C42.0135 55.0505 42.3191 53.4685 42.3191 52.5987C42.3191 48.4888 39.1715 45.459 35.195 45.459H35.1946ZM35.179 48.009C37.7018 48.009 39.7687 50.0762 39.7687 52.5987C39.7687 55.1216 37.7015 57.1884 35.179 57.1884C32.6561 57.1884 30.5892 55.1212 30.5892 52.5987C30.5892 50.0758 32.6564 48.009 35.179 48.009ZM35.179 50.0487C33.7585 50.0487 32.629 51.1782 32.629 52.5987C32.629 54.0192 33.7585 55.1486 35.179 55.1486C36.5994 55.1486 37.7289 54.0188 37.7289 52.5987C37.7289 51.1782 36.5994 50.0487 35.179 50.0487Z" fill="#FF6B00"/>
<defs>
<filter id="filter0_d_141_32" x="0" y="0" width="102" height="102" filterUnits="userSpaceOnUse" color-interpolation-filters="sRGB">
<feFlood flood-opacity="0" result="BackgroundImageFix"/>
<feColorMatrix in="SourceAlpha" type="matrix" values="0 0 0 0 0 0 0 0 0 0 0 0 0 0 0 0 0 0 127 0" result="hardAlpha"/>
<feOffset dy="4"/>
<feGaussianBlur stdDeviation="2"/>
<feComposite in2="hardAlpha" operator="out"/>
<feColorMatrix type="matrix" values="0 0 0 0 0 0 0 0 0 0 0 0 0 0 0 0 0 0 0.25 0"/>
<feBlend mode="normal" in2="BackgroundImageFix" result="effect1_dropShadow_141_32"/>
<feBlend mode="normal" in="SourceGraphic" in2="effect1_dropShadow_141_32" result="shape"/>
</filter>
</defs>
</svg>
