<svg width="94" height="94" viewBox="0 0 94 94" fill="none" xmlns="http://www.w3.org/2000/svg">
<circle cx="47" cy="47" r="46" stroke="#FF6B00" stroke-width="2"/>
<path d="M63.4741 28.0003C52.5997 27.9995 37.3158 28.0006 26.5266 28.0003C26.2546 28.0003 25.9929 28.1084 25.8003 28.3006C25.6081 28.4931 25.5 28.7544 25.5 29.0265V65.9738C25.5 66.2458 25.6081 66.5071 25.8003 66.6997C25.9929 66.8919 26.2542 67 26.5262 67H63.4738C63.7458 67 64.0071 66.8919 64.1997 66.6997C64.3919 66.5071 64.5 66.2458 64.5 65.9738V29.0265C64.5 28.7544 64.3919 28.4931 64.1997 28.3006C64.0071 28.1083 63.7462 28.0003 63.4741 28.0003ZM48.0793 30.0531V36.2108H41.9211V30.0531H48.0793ZM62.4478 64.9477L27.5529 64.9473V30.0527H39.8688V37.2367C39.8688 37.5091 39.9765 37.7701 40.1691 37.9626C40.3617 38.1552 40.623 38.2633 40.895 38.263H49.1057C49.3778 38.2633 49.6391 38.1552 49.8317 37.9626C50.0243 37.7701 50.132 37.5091 50.132 37.2367V30.0527H62.4478L62.4478 64.9477ZM45.2166 48.9565C44.0483 49.2267 44.5773 51.1797 44.4667 52.0814C44.5279 54.3845 45.2596 56.6198 46.5719 58.5134C47.8844 60.4069 49.7207 61.8766 51.8556 62.7421C52.1734 62.925 52.5643 62.9254 52.8818 62.7421C55.017 61.8766 56.8533 60.4069 58.1655 58.5134C59.4777 56.6194 60.2094 54.3844 60.2703 52.081C60.1593 51.1794 60.6894 49.2289 59.5207 48.9561L52.6452 47.0389C52.6796 46.711 45.3924 48.9732 45.2166 48.9565ZM58.2179 50.7244C58.4262 52.5248 58.1112 54.3472 57.3108 55.9733C56.5108 57.5999 55.259 58.9611 53.7055 59.895L52.3686 60.6679C50.4621 59.8492 48.8667 58.4429 47.8144 56.6545C46.7624 54.8658 46.3088 52.7883 46.5193 50.7244L52.3686 49.0928L58.2179 50.7244Z" fill="#FF6B00"/>
</svg>
