<svg width="24" height="24" viewBox="0 0 24 24" fill="none" xmlns="http://www.w3.org/2000/svg">
<path d="M20.6731 16.0808C19.5146 15.1495 18.6118 14.7155 17.8335 14.7155C16.8837 14.7155 16.2619 15.346 15.6042 16.0145L15.3908 16.2299C15.3035 16.3166 15.1934 16.3576 15.0437 16.3576C14.4954 16.3576 13.3176 15.8336 10.8247 13.34C7.36695 9.88197 7.73911 8.97094 7.9351 8.77448L8.14767 8.56456C9.35055 7.38105 10.3889 6.35882 8.08405 3.49206C7.27754 2.48828 6.48852 2 5.67309 2C4.57352 2 3.73367 2.88422 2.99203 3.66448C2.86605 3.7964 2.74444 3.9255 2.62425 4.04539C1.78989 4.87943 1.79193 6.70252 2.63034 8.92382C3.55221 11.3671 5.37234 14.0255 7.75686 16.4087C12.0059 20.6586 16.0428 22.1667 18.2088 22.1667C19.05 22.1667 19.711 21.95 20.1189 21.5402C20.2394 21.421 20.3679 21.2984 20.5005 21.1732C21.302 20.4116 22.2106 19.5485 22.1635 18.4085C22.1311 17.6217 21.6437 16.8605 20.6733 16.0805L20.6731 16.0808ZM20.0325 20.6811C19.8967 20.8102 19.7637 20.9368 19.6391 21.0604C19.3604 21.3407 18.8654 21.4884 18.2083 21.4884C16.1723 21.4884 12.3388 20.0326 8.23619 15.9293C5.91885 13.6125 4.15362 11.0393 3.26452 8.6841C2.5452 6.77862 2.48162 5.14587 3.10431 4.5247C3.22748 4.40075 3.35393 4.2679 3.48319 4.13129C4.13105 3.45058 4.86489 2.67816 5.67285 2.67816C6.261 2.67816 6.89434 3.0947 7.55504 3.9175C9.47584 6.30566 8.79637 6.97336 7.6718 8.0809L7.45438 8.29488C6.55688 9.19426 7.47564 10.9495 10.3447 13.8191C12.5079 15.983 14.0458 17.0349 15.0435 17.0355C15.3759 17.0355 15.6537 16.9258 15.8702 16.709L16.0868 16.4903C16.69 15.8773 17.167 15.3936 17.8332 15.3936C18.4399 15.3936 19.2301 15.7909 20.2481 16.609C21.0455 17.2501 21.4616 17.8647 21.4854 18.437C21.5201 19.2694 20.73 20.0199 20.0325 20.6815L20.0325 20.6811Z" fill="white"/>
</svg>
