<svg width="172" height="28" viewBox="0 0 172 28" fill="none" xmlns="http://www.w3.org/2000/svg">
<path fill-rule="evenodd" clip-rule="evenodd" d="M25.6965 20.4761C25.916 19.7976 25.9559 19.9173 26.1555 19.0791C26.395 17.9815 26.5945 16.9038 26.5945 15.7263C26.5945 14.01 26.1954 12.2737 25.5767 10.737C25.2774 10.0185 24.958 9.3799 24.5789 8.74127C24.3394 8.32217 24.0799 7.90306 23.7806 7.54383C23.2617 6.9052 22.7228 6.26657 22.0642 5.76764C21.8846 5.62794 21.9645 5.6479 21.8248 5.5082C21.7449 5.40841 21.7649 5.46828 21.6451 5.42837C21.4855 5.38845 21.3657 5.24875 21.1063 5.16892V5.2288V5.24875C21.1063 5.28867 21.1063 5.28867 21.1263 5.28867C21.1263 5.28867 21.1263 5.30862 21.1063 5.32858C20.9666 5.26871 20.8269 5.28867 20.7072 5.2288C20.5874 5.16892 20.5076 5.06914 20.3878 5.00927C20.1683 4.88952 20.0885 4.92944 19.5097 4.59016C19.4498 4.55025 19.4898 4.57021 19.4299 4.55025C19.0906 4.45046 18.7314 4.27085 18.432 4.11119C18.3322 4.05132 18.3522 4.03136 18.2724 4.11119C18.8511 4.51033 19.0707 4.55025 19.6893 4.86957C19.9488 5.00927 20.1483 5.12901 20.3479 5.30862C20.5275 5.44833 20.9067 5.60798 21.0065 5.76764C20.8668 5.74768 19.7093 5.08909 19.4498 4.96935C18.4919 4.51033 17.2745 4.11119 16.0372 3.8717L14.5803 0L13.6024 2.23521C13.4028 2.21525 13.303 2.27512 12.9238 2.335C12.7442 2.37491 11.9659 2.53457 11.926 2.7541C12.0258 2.77406 12.3451 2.69423 12.4848 2.67427C12.6245 2.65431 12.6843 2.69423 12.7841 2.67427C12.8839 2.67427 12.8839 2.6144 13.0635 2.6144C13.1434 2.6144 13.2831 2.6144 13.4427 2.59444L13.3629 2.79401C13.0236 2.81397 12.5846 2.8938 12.4249 2.91376C12.2852 2.93371 12.0657 2.93371 12.0058 3.05346C12.1255 3.13329 12.0856 3.07341 12.2054 3.07341C12.3052 3.07341 12.3451 3.11333 12.4648 3.09337C12.6245 3.05346 12.4449 3.01354 12.6843 3.0335C12.824 3.05346 13.0436 3.05346 13.2631 3.0335L13.0236 3.57234C12.7043 3.5923 12.4049 3.63222 12.1255 3.69209C11.8661 3.75196 11.7464 3.75196 11.4869 3.81183C11.3672 3.85175 10.968 3.95153 10.8882 3.89166C11.1277 3.75196 10.968 3.93157 11.2674 3.65217C11.5069 3.4526 12.7043 3.23307 12.7442 3.19316C12.5646 3.0335 12.0457 3.21311 11.926 3.23307C11.3472 3.35282 10.7685 3.51247 10.2096 3.732L8.91243 4.37063C8.77273 4.43051 8.63303 4.51033 8.49333 4.57021C8.33367 4.63008 8.17401 4.66999 8.01435 4.74982C7.75491 4.86957 7.715 4.84961 7.55534 4.90948C7.33581 4.98931 6.25812 5.7876 6.05854 5.96721C5.9388 6.067 5.7991 6.16679 5.7991 6.3464C5.95876 6.3464 5.95876 6.26657 6.05854 6.16679C6.2182 6.00713 6.75705 5.68781 6.91671 5.60798C6.85683 5.70777 6.71713 5.76764 6.61735 5.86743C6.51756 5.94726 6.41777 6.02708 6.31799 6.12687C6.01863 6.40627 5.69931 6.64576 5.41991 6.94512L4.60167 7.88311C4.42205 8.10264 4.26239 8.28225 4.08278 8.48182C3.90316 8.6814 3.74351 8.88097 3.58385 9.12046C3.42419 9.33999 3.28449 9.55951 3.12483 9.799C3.045 9.91875 2.98513 10.0584 2.9053 10.1383L2.66582 10.5773C2.64586 10.5175 3.42419 9.00071 3.4641 9.06058C3.48406 9.1005 3.66368 9.00071 3.72355 8.92088C3.88321 8.6814 4.20252 8.38204 4.20252 8.08268C4.02291 8.12259 3.76346 8.58161 3.64372 8.74127C3.38427 9.08054 3.38427 8.94084 3.10487 9.45973C2.88534 9.87883 2.66581 10.278 2.4862 10.717C2.42633 10.8567 2.38641 11.0563 2.24671 11.1361C2.16688 10.7769 2.70573 9.97862 2.72569 9.55951C2.60594 9.55951 2.46624 9.73913 2.36646 9.83892C2.28663 9.91875 2.3465 9.89879 2.26667 9.9387C2.28663 9.75909 2.36646 9.71917 2.3465 9.49964C2.16688 9.59943 2.16688 9.95866 1.96731 10.0584C1.7877 9.61939 2.30658 9.33999 2.22676 8.86101C2.12697 8.92088 2.10701 9.02067 2.04714 9.12046C1.90744 9.3799 1.80765 9.6593 1.70787 9.91875C1.66795 10.0385 1.68791 10.0185 1.58812 10.0584C1.48834 9.91875 1.56817 9.91875 1.64799 9.799C1.76774 9.55951 1.94735 9.16037 1.96731 8.94084C1.80765 8.9608 1.84757 9.00071 1.80765 9.14041C1.68791 9.5196 1.20894 10.4975 1.02932 10.9964C0.929535 11.2559 1.00936 11.3158 0.869664 11.5952C0.749921 11.8546 0.729962 12.3136 0.53039 12.7527C0.430604 12.9522 0.450562 13.1917 0.410647 13.4113C0.191117 14.3692 0.250989 16.5046 0.570305 17.4825C0.630176 17.6821 0.710006 17.8418 0.74992 18.0413C0.789835 18.201 0.869664 18.5203 0.889621 18.66C0.829749 18.6401 0.670091 18.3607 0.650134 18.3008C0.530391 18.0214 0.330818 17.0435 0.310861 16.7641C0.310861 16.5246 0.231032 16.4448 0.211075 16.2452C0.191117 16.0456 0.211075 15.846 0.191118 15.6465L0.051417 14.5289C-0.0483692 14.6686 0.0314596 14.6885 0.0115024 14.8881C-0.00845486 15.6664 0.0115024 16.4647 0.111289 17.2231C0.17116 17.6422 0.211075 17.6422 0.370732 17.9416L0.250989 17.9815C0.270947 18.201 0.470519 18.7798 0.550348 18.9793C0.729963 19.4383 0.909578 19.8774 1.12911 20.2965C1.26881 20.556 1.40851 20.8753 1.56817 21.1347C1.98727 21.7135 2.14693 21.9929 2.64586 22.6115C2.88534 22.9109 3.16474 23.1504 3.44415 23.4098L4.44201 24.3478C4.46196 24.3678 4.48192 24.3678 4.48192 24.3877L3.00509 28H6.95662L7.49547 26.6629C8.1341 26.9223 8.51328 26.6828 9.27166 26.8824C9.71072 26.9822 9.99012 27.0021 10.4292 26.8824C10.7485 26.8026 10.6687 26.7227 10.8483 26.6429C11.1476 26.5032 11.0878 26.603 11.1077 26.2637C11.447 26.1839 11.3073 26.1041 11.4071 25.9444C11.467 25.8446 11.5268 25.9045 11.6067 25.8446C11.7064 25.7648 11.6466 25.7249 11.6466 25.6051C11.6466 25.4854 11.8262 25.3457 11.926 25.2659C12.0657 25.1661 12.1056 25.0264 12.1655 24.8468C12.4848 24.0485 11.8062 23.4897 11.4869 23.1903C11.0479 22.7712 10.5689 22.412 9.99012 22.1525C9.91029 22.1126 9.69076 22.0328 9.41136 21.953L14.4206 9.6593L20.5675 24.6871C20.1084 24.9665 19.6095 25.2259 19.1106 25.4455C18.7314 25.6251 18.6116 25.7049 18.1526 25.8247C17.9531 25.8646 17.1947 26.0043 17.0749 26.0841C17.2346 26.144 17.8732 26.0242 18.0728 25.9843C18.7314 25.8446 19.37 25.6251 19.9687 25.3058C20.2082 25.186 20.4278 25.0264 20.6473 24.9066C20.6872 24.8867 20.7271 24.8667 20.767 24.8468C20.7471 24.8667 20.7072 24.9066 20.6473 24.9465C20.3479 25.1661 19.6494 25.5253 19.3501 25.645C18.3522 26.0641 16.9951 26.5032 15.8775 26.603C15.7178 26.623 15.5183 26.6229 15.3586 26.6429C15.0593 26.7028 15.179 26.7028 14.8796 26.6429C14.6601 26.603 14.7 26.8026 14.5005 26.7227C14.3408 26.6429 14.2809 26.5431 14.1811 26.4633C14.0414 26.4433 13.8818 26.4433 13.762 26.5232C13.7221 26.8425 14.1213 26.7826 14.4007 26.8026C14.8198 26.8225 14.7 27.1019 15.0792 27.1219C15.4983 27.1418 16.7556 27.0221 16.9752 27.0421L16.6758 27.1418C16.8155 27.1618 17.035 27.1418 17.1747 27.1019C17.4142 27.0221 17.1947 27.1019 17.2745 27.0221C17.4741 26.8425 17.6138 27.0221 17.8533 26.9822C17.9331 26.9622 18.0129 26.9423 18.0728 26.9223L18.1925 26.8824H18.2125C18.2923 26.8425 18.2524 26.8624 18.2724 26.8425C18.1526 26.8624 18.0928 26.8824 18.0129 26.8425C18.4719 26.7028 19.0906 26.583 19.5097 26.3635L19.5896 26.3236C19.7492 26.2837 19.6494 26.3036 19.6893 26.3435C18.8112 26.603 18.5917 26.9622 17.2546 27.2416C16.4163 27.4212 15.5981 27.6208 14.7399 27.6607C14.6002 27.6607 14.4605 27.6408 14.3807 27.7406C14.9395 27.9002 16.3964 27.6807 16.9752 27.5609C17.5938 27.4212 18.2724 27.1418 18.8711 26.9423C18.9908 26.9024 19.0707 26.9024 19.1704 26.8824C19.3301 26.8225 19.4898 26.7028 19.6295 26.6229C20.0486 26.4234 20.6273 26.1839 20.9866 25.9045L21.8248 27.9401H25.7563L23.8804 23.3699C24.2795 22.871 24.6387 22.3721 24.998 21.6935C25.2574 21.4341 25.5967 20.7555 25.6965 20.4761ZM4.48192 11.5153C4.50188 11.4954 4.50188 11.4754 4.52184 11.4555C4.54179 11.4355 4.54179 11.4155 4.54179 11.3756C4.54179 11.3557 4.56175 11.3557 4.56175 11.3357C4.6815 11.1761 4.62162 11.4355 4.80124 10.8767C4.8212 10.7769 4.86111 10.717 4.90102 10.6372C4.92098 10.6172 4.92098 10.5773 4.94094 10.5574C5.12055 10.5773 4.92098 10.5973 5.14051 10.6172C5.14051 10.5773 5.16047 10.5574 5.18043 10.5175C5.22034 10.4376 5.26025 10.3578 5.30017 10.278C5.36004 10.1782 5.41991 10.0784 5.47978 9.97862C5.5197 9.91875 5.55961 9.83892 5.59953 9.77905C5.61948 9.75909 5.61948 9.73913 5.63944 9.71917C5.6594 9.67926 5.67936 9.63934 5.69931 9.61939C5.71927 9.57947 5.71927 9.55951 5.73923 9.5196C5.75918 9.47969 5.75919 9.45973 5.77914 9.41981C5.77914 9.39986 5.7991 9.3799 5.81906 9.35994C5.85897 9.28011 5.85897 9.28011 5.87893 9.26016C5.87893 9.26016 5.87893 9.26016 5.89889 9.2402C5.89889 9.2402 5.89889 9.2402 5.89889 9.22024C5.89889 9.20028 5.91884 9.20028 5.9388 9.16037C6.01863 9.00071 5.91884 9.08054 6.11842 9.04063C6.11842 9.04063 6.11842 9.02067 6.11842 9.00071V8.98075C6.11842 8.9608 6.11842 8.94084 6.11842 8.92088C6.13837 8.86101 6.15833 8.86101 6.23816 8.80114C6.31799 8.74127 6.3579 8.70135 6.41777 8.64148C6.65726 8.402 7.29589 7.90306 7.59525 7.66358C7.8547 7.46401 8.15405 7.26443 8.43345 7.06486C8.59311 6.94512 9.15192 6.4861 9.31157 6.64576C9.29162 6.80542 8.87251 7.02495 8.71286 7.10477C8.71286 7.08482 8.73281 7.08482 8.73281 7.06486C8.75277 7.02495 8.75277 7.02495 8.77273 7.00499L8.79269 6.98503C8.79269 6.96507 8.81264 6.96508 8.8326 6.92516C8.65298 6.98503 7.83474 7.64362 7.63517 7.78332C7.41564 7.96294 7.27594 8.08268 7.09632 8.26229L6.59739 8.80114C6.43773 9.00071 6.29803 9.18033 6.13837 9.3799C5.99867 9.55951 5.9388 9.63934 5.87893 9.73913C5.85897 9.77904 5.83901 9.81896 5.7991 9.85887L5.77914 9.87883C5.77914 9.89879 5.75918 9.89879 5.73923 9.91875C5.71927 9.9387 5.71927 9.95866 5.69931 9.97862C5.59953 10.1183 5.53966 10.2181 5.45983 10.3578C5.43987 10.3778 5.43987 10.3977 5.41991 10.4177C5.38 10.4775 5.36004 10.5574 5.32013 10.6172C5.30017 10.6372 5.30017 10.6771 5.28021 10.6971C5.2403 10.7969 5.18043 10.8767 5.16047 10.9765C5.12055 11.0563 5.12055 11.0962 5.12055 11.1561C5.12055 11.1761 5.12055 11.196 5.1006 11.216C5.1006 11.2359 5.1006 11.2359 5.08064 11.2559C5.06068 11.2758 5.04073 11.2958 4.98085 11.3158L4.90102 11.0763C4.88107 11.0763 4.88107 11.0962 4.86111 11.0962C4.84115 11.0962 4.84115 11.1162 4.8212 11.1361C4.68149 11.3158 4.64158 11.655 4.42205 11.7548C4.28235 11.655 4.40209 11.6351 4.48192 11.5153ZM5.7991 21.2145C5.63944 21.1946 5.63944 21.1347 5.49974 20.995C5.20038 20.7156 4.86111 20.1768 4.74137 19.7976C4.62162 19.8574 4.72141 19.8574 4.58171 19.8574C4.52184 19.7377 4.26239 19.3186 4.24243 19.1789C4.24243 19.0791 4.22248 18.9993 4.22248 18.8995C4.08278 18.8197 4.08278 18.9394 4.06282 18.7398C4.06282 18.7398 4.12269 18.6201 4.26239 18.7598C4.50188 19.0192 4.80124 19.7976 5.2403 19.9772C5.14051 19.8175 5.02077 19.7377 4.88107 19.5581C4.78128 19.4383 4.66154 19.1989 4.56175 19.0991C4.56175 19.0991 4.56175 19.0791 4.58171 19.0791C4.58171 19.0791 4.58171 19.0592 4.60167 19.0592L4.64158 18.9394C4.56175 18.8795 4.42205 18.7598 4.54179 18.6401C4.66154 18.66 4.6815 18.7398 4.76132 18.8596L5.34008 19.6379C5.53966 19.8974 5.83901 20.1768 6.19824 20.2566L5.7991 21.2145ZM8.31371 15.0677L6.25812 20.077C6.13837 19.9772 5.99867 19.8574 5.91884 19.7976C5.81906 19.7177 5.77914 19.6978 5.71927 19.6379C5.6594 19.578 5.14051 18.8995 5.1006 18.8197C5.02077 18.6201 5.1006 18.68 4.90102 18.3207C4.80124 18.1212 4.74137 18.0413 4.64158 17.8617C4.50188 17.6622 4.44201 17.3628 4.30231 17.1433C4.24244 17.0435 4.16261 17.0235 4.22248 16.9038C4.42205 17.0036 4.24244 17.1433 4.52184 17.263C4.52184 17.0435 4.30231 16.6044 4.24243 16.345C4.20252 16.1654 4.08278 15.4269 4.12269 15.3272C4.28235 15.407 4.26239 15.7862 4.30231 15.9458L4.46197 16.4048C4.50188 16.5046 4.48192 16.4847 4.54179 16.5445C4.62162 16.2452 4.42205 16.1654 4.38214 15.866C4.36218 15.7263 4.36218 15.5866 4.34222 15.4469C4.28235 15.2074 4.28235 14.948 4.28235 14.7085C4.28235 14.449 4.22248 14.4091 4.22248 14.2295C4.18256 13.7705 4.36218 13.1917 4.54179 12.8325L4.74137 12.8924L5.32013 11.4155C5.38 11.2958 5.36004 11.216 5.39996 11.0962C5.43987 10.9964 5.49974 10.9366 5.53966 10.8168C5.59953 10.6771 5.57957 10.5973 5.61948 10.4775C5.69931 10.3578 5.7991 10.4177 5.83901 10.2979C5.89889 10.0984 5.63944 10.278 5.83901 10.0984C5.95876 9.99857 6.05854 9.73913 6.11842 9.57947C6.2182 9.59943 6.15833 9.59943 6.25812 9.63934C6.31799 9.45973 6.47765 9.2402 6.61735 9.12046C6.777 8.98076 6.87679 8.78118 7.05641 8.66144C7.27594 8.50178 7.37572 8.32217 7.75491 8.02281C7.87465 7.92302 7.8547 7.84319 7.91457 7.72345C8.01435 7.72345 7.93453 7.72345 7.97444 7.74341L8.05427 7.78332C8.1341 7.70349 8.2738 7.60371 8.37358 7.54383C8.35363 7.76336 8.21393 7.88311 8.01435 8.04276C7.87465 8.14255 7.65512 8.30221 7.71499 8.52174C7.91457 8.46187 8.8326 7.80328 9.09204 7.64362C10.0101 7.08482 10.7884 6.68567 11.8062 6.44619L8.31371 15.0677ZM23.4413 22.0527L23.3814 21.913C23.4413 21.8731 23.5211 21.8332 23.561 21.8133C23.5411 21.8931 23.5012 21.9729 23.4413 22.0527ZM23.8005 20.9152C23.6209 21.2345 23.4613 21.4939 23.3016 21.7334L16.9951 6.30649C18.0129 6.44619 19.2303 6.86529 20.0086 7.34426C20.2481 7.48396 20.4677 7.62366 20.6872 7.78332C20.8668 7.88311 21.246 8.18247 21.4057 8.24234C21.3059 8.04276 20.4278 7.464 20.1284 7.30435C19.7093 7.06486 19.0906 6.80542 18.6116 6.60584C18.3123 6.4861 17.5739 6.28653 16.9352 6.14683L16.8754 6.00713C17.3144 6.10691 17.6936 6.18674 17.8533 6.24661C18.6715 6.4861 19.5896 6.82537 20.2881 7.1846C21.0065 7.58375 21.705 8.02281 22.2439 8.60157C22.643 9.02067 23.5211 9.95866 23.7007 10.5175L23.5012 10.3179C23.7207 10.9565 24.4192 11.2758 24.8583 13.4512C24.978 13.9701 25.0977 14.9679 25.0578 15.4868C25.0578 15.6664 25.0977 15.8261 25.0977 16.0257C25.0578 17.6622 24.5389 19.598 23.8005 20.9152Z" fill="white"/>
<path fill-rule="evenodd" clip-rule="evenodd" d="M44 10.7401H45.9286C53.9984 10.5879 52.9834 19.9265 45.9794 19.5712L45.9286 23.7838H44V17.7949H45.9794C50.8517 17.9979 50.8517 12.1612 45.9794 12.5672V15.5617H44.0508L44 10.7401Z" fill="white"/>
<path fill-rule="evenodd" clip-rule="evenodd" d="M79.6289 17.7441H81.6083V23.8345H79.6289V17.7441Z" fill="white"/>
<path d="M97.3412 10.791C94.7527 10.791 92.6211 12.7704 92.6211 15.2066C92.6211 17.6427 94.7527 19.6221 97.3412 19.6221C99.9296 19.6221 102.061 17.6427 102.061 15.2066C102.061 12.7704 99.9296 10.791 97.3412 10.791ZM97.3412 17.7442C95.8693 17.7442 94.6512 16.6277 94.6512 15.2066C94.6512 13.7855 95.8693 12.6689 97.3412 12.6689C98.813 12.6689 100.031 13.7855 100.031 15.2066C100.031 16.5769 98.8638 17.7442 97.3412 17.7442Z" fill="white"/>
<path fill-rule="evenodd" clip-rule="evenodd" d="M76.5332 10.7402H84.7553V12.7196H81.6085V15.5111H79.6799L79.6292 12.7196H76.584L76.5332 10.7402Z" fill="white"/>
<path fill-rule="evenodd" clip-rule="evenodd" d="M91.0996 23.7333V21.8047H104.194V23.7333H91.0996Z" fill="white"/>
<path fill-rule="evenodd" clip-rule="evenodd" d="M109.777 10.8427H111.706C119.776 10.6904 118.761 20.029 111.757 19.6738L111.706 23.8863H109.777V17.8974H111.757C116.629 18.1004 116.629 12.2638 111.757 12.6698V15.6642H109.828L109.777 10.8427Z" fill="white"/>
<path fill-rule="evenodd" clip-rule="evenodd" d="M44 10.7401H45.9286C53.9984 10.5879 52.9834 19.9265 45.9794 19.5712L45.9286 23.7838H44V17.7949H45.9794C50.8517 17.9979 50.8517 12.1612 45.9794 12.5672V15.5617H44.0508L44 10.7401Z" fill="white"/>
<path fill-rule="evenodd" clip-rule="evenodd" d="M133.883 8.05078V10.893V23.9873H131.904V13.8874L124.291 25.4592V10.893H126.22V19.6733L131.904 10.893L133.883 8.05078Z" fill="white"/>
<path fill-rule="evenodd" clip-rule="evenodd" d="M141.09 10.791H143.018V15.6126H141.09V10.791Z" fill="white"/>
<path fill-rule="evenodd" clip-rule="evenodd" d="M141.092 19.5723H143.02V23.7848H141.092V19.5723Z" fill="white"/>
<path fill-rule="evenodd" clip-rule="evenodd" d="M147.993 10.7402H150.277L144.186 17.795L150.277 23.7839L148.044 23.8346L141.902 17.795L147.993 10.7402Z" fill="white"/>
<path fill-rule="evenodd" clip-rule="evenodd" d="M166.925 11.2994L165.961 8.71094L165.047 10.7411L163.575 14.3446L162.357 11.3501L161.393 8.76169L160.479 10.7918L157.993 16.8822L155.15 23.8355H157.282L159.008 19.5722H161.444L159.718 23.7847H161.85L163.575 19.5722L165.301 23.8355H167.382L165.656 19.5722H168.143L169.869 23.7847H172.001L166.925 11.2994ZM162.256 17.5928H159.82L161.292 13.9385L162.51 16.933L162.256 17.5928ZM164.895 17.5928L164.641 16.933L165.859 13.8878L167.382 17.542H164.895V17.5928Z" fill="white"/>
<path fill-rule="evenodd" clip-rule="evenodd" d="M44 10.7401H45.9286C53.9984 10.5879 52.9834 19.9265 45.9794 19.5712L45.9286 23.7838H44V17.7949H45.9794C50.8517 17.9979 50.8517 12.1612 45.9794 12.5672V15.5617H44.0508L44 10.7401Z" fill="white"/>
<path fill-rule="evenodd" clip-rule="evenodd" d="M44 10.7401H45.9286C53.9984 10.5879 52.9834 19.9265 45.9794 19.5712L45.9286 23.7838H44V17.7949H45.9794C50.8517 17.9979 50.8517 12.1612 45.9794 12.5672V15.5617H44.0508L44 10.7401Z" fill="white"/>
<path fill-rule="evenodd" clip-rule="evenodd" d="M68.3111 8L68.2604 10.7914V23.9366H66.3317V13.7859L58.7187 25.4084L58.668 10.7914H60.6474V19.5718L66.3317 10.7914L68.3111 8Z" fill="white"/>
<path fill-rule="evenodd" clip-rule="evenodd" d="M141.09 10.791H143.018V15.6126H141.09V10.791Z" fill="white"/>
<path fill-rule="evenodd" clip-rule="evenodd" d="M44 10.7401H45.9286C53.9984 10.5879 52.9834 19.9265 45.9794 19.5712L45.9286 23.7838H44V17.7949H45.9794C50.8517 17.9979 50.8517 12.1612 45.9794 12.5672V15.5617H44.0508L44 10.7401Z" fill="white"/>
</svg>
