<svg width="94" height="94" viewBox="0 0 94 94" fill="none" xmlns="http://www.w3.org/2000/svg">
<circle cx="47" cy="47" r="46" stroke="#FF6B00" stroke-width="2"/>
<path d="M64.8226 22C69.2854 22 72.9982 25.5043 72.9982 30.16C72.9982 31.2965 72.7445 32.7726 72.3607 33.8095C70.1726 38.5127 67.9627 43.2251 65.7628 47.9298C65.5999 48.2791 65.2242 48.5196 64.8387 48.5196H51.069C48.5084 48.5196 46.4793 50.549 46.4793 53.1093C46.4793 55.6699 48.5088 57.699 51.069 57.699H57.1888C61.4093 57.699 64.8386 61.1283 64.8386 65.3488C64.8386 69.5693 61.4093 72.9986 57.1888 72.9986H31.1794C30.7938 72.9986 30.4181 72.7585 30.2552 72.4088C27.7725 67.1115 25.1778 61.852 22.7172 56.5518C22.2981 55.437 22 53.8574 22 52.5996C22 47.42 26.1582 43.4198 31.1962 43.4198C36.2337 43.4198 40.3595 47.423 40.3595 52.5996C40.3595 53.8585 40.0582 55.4399 39.6424 56.5518C37.3699 61.3518 35.0747 66.1569 32.7894 70.959H57.1896C60.3151 70.959 62.7996 68.4749 62.7996 65.3489C62.7996 62.2234 60.3155 59.7389 57.1896 59.7389H51.0698C47.4146 59.7389 44.4399 56.7642 44.4399 53.1089C44.4399 49.4537 47.4146 46.479 51.0698 46.479H63.2294C61.2636 42.2536 59.2476 38.0427 57.3163 33.8095C56.9356 32.775 56.6788 31.2972 56.6788 30.16C56.6788 25.5076 60.3596 22 64.8227 22L64.8226 22ZM64.8226 24.0398C61.3986 24.0398 58.7189 26.5574 58.7189 30.1595C58.7189 30.9137 58.9967 32.4526 59.229 33.0919C61.0874 37.0886 62.9671 41.0832 64.8391 45.0766C66.6665 41.0635 68.5583 37.1827 70.4491 33.0919C70.6818 32.4547 70.9593 30.9155 70.9593 30.1595C70.9593 26.5602 68.2475 24.0398 64.8235 24.0398H64.8226ZM64.8383 26.5897C66.7977 26.5897 68.4081 28.2002 68.4081 30.1595C68.4081 32.1189 66.7976 33.7293 64.8383 33.7293C62.8788 33.7293 61.2685 32.1189 61.2685 30.1595C61.2685 28.2002 62.8789 26.5897 64.8383 26.5897ZM64.8383 28.6295C63.9813 28.6295 63.3082 29.3025 63.3082 30.1595C63.3082 31.0165 63.9813 31.6896 64.8383 31.6896C65.6953 31.6896 66.3683 31.0165 66.3683 30.1595C66.3683 29.3025 65.6953 28.6295 64.8383 28.6295ZM31.1946 45.459C27.2182 45.459 24.0389 48.4921 24.0389 52.5987C24.0389 53.4699 24.3438 55.0522 24.6288 55.8182C26.8006 60.4097 28.9937 64.9998 31.179 69.5878C33.3191 64.9789 35.6072 60.3325 37.7292 55.8182C38.0135 55.0505 38.3191 53.4685 38.3191 52.5987C38.3191 48.4888 35.1715 45.459 31.195 45.459H31.1946ZM31.179 48.009C33.7018 48.009 35.7687 50.0762 35.7687 52.5987C35.7687 55.1216 33.7015 57.1884 31.179 57.1884C28.6561 57.1884 26.5892 55.1212 26.5892 52.5987C26.5892 50.0758 28.6564 48.009 31.179 48.009ZM31.179 50.0487C29.7585 50.0487 28.629 51.1782 28.629 52.5987C28.629 54.0192 29.7585 55.1486 31.179 55.1486C32.5994 55.1486 33.7289 54.0188 33.7289 52.5987C33.7289 51.1782 32.5994 50.0487 31.179 50.0487Z" fill="#FF6B00"/>
</svg>
