<svg width="22" height="22" viewBox="0 0 22 22" fill="none" xmlns="http://www.w3.org/2000/svg">
<path d="M19.5891 14.9973C18.4306 14.066 17.5278 13.632 16.7495 13.632C15.7997 13.632 15.1779 14.2625 14.5202 14.931L14.3068 15.1464C14.2195 15.2331 14.1094 15.2741 13.9597 15.2741C13.4114 15.2741 12.2336 14.7501 9.74068 12.2565C6.28296 8.79847 6.65513 7.88745 6.85111 7.69098L7.06368 7.48107C8.26657 6.29755 9.30492 5.27533 7.00007 2.40856C6.19356 1.40479 5.40453 0.916504 4.5891 0.916504C3.48953 0.916504 2.64969 1.80072 1.90804 2.58098C1.78206 2.7129 1.66046 2.84201 1.54026 2.96189C0.705902 3.79593 0.707943 5.61902 1.54636 7.84033C2.46823 10.2836 4.28836 12.942 6.67288 15.3252C10.9219 19.5751 14.9589 21.0832 17.1248 21.0832C17.966 21.0832 18.627 20.8665 19.0349 20.4567C19.1555 20.3375 19.2839 20.2149 19.4165 20.0897C20.218 19.3281 21.1266 18.465 21.0795 17.325C21.0472 16.5382 20.5597 15.777 19.5893 14.9971L19.5891 14.9973ZM18.9486 19.5976C18.8127 19.7267 18.6797 19.8533 18.5552 19.977C18.2765 20.2572 17.7815 20.4049 17.1244 20.4049C15.0883 20.4049 11.2548 18.9491 7.1522 14.8458C4.83487 12.529 3.06963 9.95579 2.18054 7.6006C1.46122 5.69512 1.39763 4.06238 2.02033 3.44121C2.14349 3.31726 2.26994 3.1844 2.39921 3.04779C3.04706 2.36709 3.78091 1.59467 4.58886 1.59467C5.17702 1.59467 5.81035 2.01121 6.47105 2.834C8.39186 5.22216 7.71239 5.88987 6.58781 6.9974L6.37039 7.21138C5.47289 8.11076 6.39165 9.86603 9.26072 12.7356C11.4239 14.8995 12.9618 15.9514 13.9595 15.952C14.292 15.952 14.5697 15.8423 14.7862 15.6255L15.0028 15.4068C15.606 14.7938 16.083 14.3101 16.7492 14.3101C17.356 14.3101 18.1461 14.7074 19.1641 15.5255C19.9616 16.1666 20.3776 16.7812 20.4014 17.3535C20.4361 18.1859 19.646 18.9364 18.9485 19.598L18.9486 19.5976Z" fill="white"/>
</svg>
